<?xml version="1.0" standalone="no"?>
<!DOCTYPE svg PUBLIC "-//W3C//DTD SVG 20010904//EN"
 "http://www.w3.org/TR/2001/REC-SVG-20010904/DTD/svg10.dtd">
<svg version="1.0" xmlns="http://www.w3.org/2000/svg"
 width="2000.000000pt" height="1500.000000pt" viewBox="0 0 2000.000000 1500.000000"
 preserveAspectRatio="xMidYMid meet">

<g transform="translate(0.000000,1500.000000) scale(0.100000,-0.100000)"
fill="#000000" stroke="none">
<path d="M0 7500 l0 -7500 10000 0 10000 0 0 7500 0 7500 -10000 0 -10000 0 0
-7500z m11205 3165 c0 -1872 1 -1833 -55 -2115 -74 -372 -223 -665 -454 -895
-295 -293 -679 -455 -1246 -527 -68 -8 -219 -13 -430 -13 -289 0 -339 3 -450
22 -349 61 -601 180 -788 372 -80 82 -132 173 -132 230 0 60 20 113 56 149 32
32 38 34 89 30 67 -6 137 -46 180 -104 16 -23 51 -71 78 -107 104 -144 333
-267 589 -316 217 -42 417 -48 606 -19 l72 11 0 2508 0 2509 943 -2 942 -3 0
-1730z m-520 -4405 c166 -63 296 -204 340 -371 9 -32 15 -102 15 -171 l0 -118
-165 0 -165 0 0 78 c0 176 -77 281 -208 282 -80 0 -169 -69 -193 -150 -7 -23
-9 -210 -7 -530 l3 -495 24 -38 c90 -145 286 -136 357 17 20 42 24 67 24 143
l0 92 -102 3 -103 3 0 165 0 165 268 3 267 2 0 -283 c0 -222 -3 -295 -15 -342
-62 -235 -282 -405 -526 -405 -224 0 -426 148 -508 374 l-26 71 -3 490 c-2
306 1 519 7 570 28 210 195 402 402 460 78 22 235 14 314 -15z m-1207 -733 c2
-805 3 -801 -61 -921 -41 -77 -139 -181 -213 -226 -108 -65 -259 -86 -393 -55
-180 43 -329 187 -386 375 -10 32 -19 108 -22 183 l-6 127 169 -2 169 -3 5
-110 c6 -122 17 -153 74 -203 33 -28 89 -52 126 -52 67 0 145 53 183 124 22
41 22 42 25 769 l3 727 162 -2 162 -3 3 -728z m-4087 -2298 c46 -16 97 -66
110 -109 6 -21 9 -107 7 -211 -3 -175 -3 -176 -31 -212 -37 -48 -75 -67 -135
-67 -57 0 -104 27 -139 79 -22 32 -23 43 -23 220 0 171 2 189 21 220 46 76
115 105 190 80z m1841 -15 c56 -29 92 -104 86 -179 -3 -40 -3 -40 -47 -43 -52
-4 -61 6 -61 65 0 48 -20 73 -57 73 -38 0 -63 -27 -63 -67 0 -40 21 -63 89
-98 134 -67 173 -161 111 -263 -28 -46 -76 -72 -134 -72 -92 0 -159 63 -172
164 l-7 46 57 0 56 0 0 -37 c0 -43 24 -73 58 -73 36 0 62 27 62 66 0 31 -6 36
-72 75 -124 71 -148 103 -148 195 0 133 123 208 242 148z m2468 1 c40 -20 69
-65 79 -121 13 -67 7 -76 -48 -72 -45 3 -46 4 -49 38 -2 19 -11 43 -19 53 -22
24 -79 23 -93 -2 -6 -11 -10 -89 -10 -182 0 -137 3 -165 17 -181 38 -42 103
-6 103 57 l0 35 55 0 c50 0 55 -2 55 -22 0 -68 -44 -144 -101 -173 -48 -25
-120 -19 -166 14 -63 46 -73 83 -73 272 0 206 15 249 105 291 44 20 97 18 145
-7z m2351 -10 c62 -40 69 -69 69 -278 0 -175 -1 -186 -23 -218 -56 -84 -158
-105 -234 -50 -66 48 -75 86 -71 293 l3 175 29 37 c58 76 149 93 227 41z
m1094 4 c48 -28 75 -86 75 -158 l0 -62 -47 3 -48 3 -3 50 c-4 60 -24 85 -67
85 -36 0 -50 -12 -59 -50 -10 -41 15 -72 99 -120 98 -56 125 -92 125 -165 0
-60 -26 -106 -79 -142 -47 -32 -125 -32 -172 0 -42 27 -79 98 -79 149 l0 38
50 0 c48 0 50 -1 50 -29 0 -38 35 -81 66 -81 31 0 64 33 64 64 0 27 -36 59
-106 94 -56 28 -102 79 -115 126 -41 151 115 275 246 195z m1722 16 c21 -9 46
-23 57 -33 28 -25 56 -91 56 -134 l0 -38 -49 0 -48 0 -7 39 c-3 22 -13 47 -22
55 -20 21 -63 20 -86 -1 -16 -14 -18 -34 -18 -177 0 -180 7 -206 59 -206 35 0
60 27 68 74 6 36 6 36 54 36 l49 0 0 -37 c0 -52 -36 -119 -78 -148 -75 -51
-186 -23 -233 59 -23 40 -24 47 -21 221 4 225 16 258 109 291 50 17 66 17 110
-1z m-10657 -50 l0 -55 -85 0 -85 0 0 -65 0 -65 85 0 85 0 0 -34 c0 -19 3 -41
6 -50 5 -14 -6 -16 -85 -16 l-90 0 -3 -127 -3 -128 -50 0 -50 0 -3 285 c-1
157 0 290 3 297 3 10 40 13 140 13 l135 0 0 -55z m553 44 c75 -20 127 -90 127
-170 0 -14 -11 -47 -25 -73 l-25 -47 20 -37 c17 -30 20 -56 20 -149 l0 -113
-50 0 -50 0 0 96 c0 128 -20 163 -92 164 l-38 0 0 -77 c0 -43 -3 -102 -7 -131
l-6 -53 -46 3 -46 3 -3 285 c-1 157 0 290 3 297 6 16 163 18 218 2z m1212 -44
c20 -30 41 -55 45 -55 4 0 24 25 44 55 l36 55 55 0 55 0 0 -300 0 -300 -50 0
-50 0 -2 220 -3 220 -40 -60 c-22 -33 -43 -60 -46 -60 -4 0 -25 28 -48 63
l-41 62 0 -222 0 -223 -50 0 -50 0 0 300 0 300 53 0 54 0 38 -55z m1757 -47
l3 -101 68 101 67 102 50 0 c28 0 50 -2 50 -5 0 -2 -31 -54 -70 -115 -38 -61
-70 -116 -70 -123 0 -7 36 -88 80 -181 44 -93 80 -170 80 -173 0 -2 -25 -3
-56 -1 l-57 3 -53 115 c-29 63 -55 120 -57 125 -3 6 -12 1 -21 -10 -12 -15
-15 -45 -16 -127 l0 -108 -50 0 -50 0 0 300 0 300 50 0 49 0 3 -102z m828 47
l0 -55 -90 0 -90 0 0 -65 0 -65 90 0 90 0 0 -50 0 -50 -90 0 -90 0 0 -75 0
-75 90 0 90 0 0 -55 0 -55 -140 0 -140 0 0 300 0 300 140 0 140 0 0 -55z m625
0 l0 -50 -57 -3 -58 -3 0 -244 0 -245 -50 0 -50 0 0 245 0 244 -57 3 -58 3 -3
39 c-6 68 -10 67 170 64 l163 -3 0 -50z m1015 -65 l0 -120 65 0 65 0 0 120 0
120 50 0 50 0 0 -300 0 -300 -50 0 -50 0 0 130 0 130 -65 0 -65 0 0 -130 0
-130 -50 0 -50 0 0 300 0 300 50 0 50 0 0 -120z m1325 65 l0 -50 -57 -3 -58
-3 0 -244 0 -245 -50 0 -50 0 0 245 0 244 -57 3 -58 3 -3 39 c-6 68 -10 67
170 64 l163 -3 0 -50z m2290 0 l0 -50 -57 -3 -58 -3 0 -244 0 -245 -50 0 -50
0 0 245 0 244 -57 3 -58 3 -3 39 c-6 68 -10 67 170 64 l163 -3 0 -50z m450 43
c5 -13 91 -510 97 -558 3 -24 0 -25 -47 -25 -49 0 -50 1 -53 33 l-3 32 -59 0
-58 0 -6 -35 c-7 -34 -8 -35 -56 -35 -28 0 -50 4 -50 8 0 13 100 566 105 580
3 8 26 12 65 12 39 0 62 -4 65 -12z m1135 -87 l5 -95 64 97 64 97 48 0 c27 0
49 -3 49 -7 0 -3 -32 -58 -71 -120 l-72 -114 82 -173 c44 -96 81 -177 81 -180
0 -3 -24 -6 -53 -6 l-54 0 -58 126 c-59 126 -59 126 -77 104 -15 -18 -18 -41
-18 -127 l0 -104 -47 3 -48 3 -3 285 c-1 157 0 291 3 298 3 9 20 12 52 10 l48
-3 5 -94z m640 -447 l0 -55 -47 3 -48 3 -3 53 -3 52 50 0 51 0 0 -56z"/>
<path d="M5296 3108 c-13 -18 -16 -52 -16 -180 0 -145 2 -160 20 -178 28 -28
64 -25 89 6 19 24 21 40 21 173 0 172 -7 194 -62 199 -28 2 -40 -2 -52 -20z"/>
<path d="M11916 3114 c-25 -24 -28 -51 -24 -202 3 -121 6 -143 22 -161 24 -26
60 -27 86 -1 18 18 20 33 20 183 0 146 -2 166 -18 180 -23 21 -66 22 -86 1z"/>
<path d="M4650 3060 l0 -70 41 0 c50 0 77 14 89 46 20 51 -27 94 -101 94 l-29
0 0 -70z"/>
<path d="M14181 2948 c-6 -46 -14 -100 -17 -120 l-7 -38 42 0 c41 0 42 1 37
28 -3 15 -10 65 -17 112 -6 47 -15 89 -19 93 -4 4 -12 -29 -19 -75z"/>
</g>
</svg>
